<?xml version="1.0" standalone="no"?>
<!DOCTYPE svg PUBLIC "-//W3C//DTD SVG 1.1//EN" "http://www.w3.org/Graphics/SVG/1.1/DTD/svg11.dtd" >
<!--
2013-9-30: Created.
-->
<svg>
<metadata>
Created by iconfont
</metadata>
<defs>

<font id="icon" horiz-adv-x="1024" >
  <font-face
    font-family="icon"
    font-weight="500"
    font-stretch="normal"
    units-per-em="1024"
    ascent="896"
    descent="-128"
  />
    <missing-glyph />
    
    <glyph glyph-name="color" unicode="&#59110;" d="M512 881.1026963c-274.51115519 0-497.1026963-222.5915411-497.1026963-497.1026963s222.5915411-497.1026963 497.1026963-497.1026963c45.8439149 0 82.85044939 37.00653449 82.85044939 82.85044939 0 21.54111683-8.00887721 40.87288794-21.54111686 55.50980108-12.97990417 14.63691315-20.71261235 33.69251651-20.71261234 54.95746433 0 45.8439149 37.00653449 82.85044939 82.85044939 82.85044938l97.48736254 0c152.44482686 0 276.16816418 123.72333731 276.16816418 276.16816418 0 244.13265795-222.5915411 441.86906294-497.1026963 441.86906295zM208.2150185 384c-45.8439149 0-82.85044939 37.00653449-82.85044938 82.85044939s37.00653449 82.85044939 82.85044938 82.85044937 82.85044939-37.00653449 82.85044938-82.85044937-37.00653449-82.85044939-82.85044938-82.85044939zM373.91591727 604.93453212c-45.8439149 0-82.85044939 37.00653449-82.85044939 82.85044938s37.00653449 82.85044939 82.85044939 82.85044938 82.85044939-37.00653449 82.85044938-82.85044938-37.00653449-82.85044939-82.85044938-82.85044938zM650.08408273 604.93453212c-45.8439149 0-82.85044939 37.00653449-82.85044938 82.85044938s37.00653449 82.85044939 82.85044938 82.85044938 82.85044939-37.00653449 82.85044939-82.85044938-37.00653449-82.85044939-82.85044939-82.85044938zM815.7849815 384c-45.8439149 0-82.85044939 37.00653449-82.85044938 82.85044939s37.00653449 82.85044939 82.85044938 82.85044937 82.85044939-37.00653449 82.85044938-82.85044937-37.00653449-82.85044939-82.85044938-82.85044939z"  horiz-adv-x="1024" />

    
    <glyph glyph-name="user" unicode="&#58897;" d="M512.476 163.753c-170.169 0-308.118 136.411-308.118 304.681 0 168.271 137.949 304.681 308.118 304.681 170.169 0 308.119-136.411 308.119-304.681C820.594 300.163 682.645 163.753 512.476 163.753L512.476 163.753zM512.476 711.814c-135.713 0-246.12-109.178-246.12-243.381 0-134.202 110.407-243.381 246.12-243.381 135.719 0 246.126 109.179 246.126 243.381C758.602 602.636 648.195 711.814 512.476 711.814L512.476 711.814zM935.867-173.115l-26.164 0c-9.648 0-17.779 6.941-19.384 16.35-2.646 15.426-6.277 30.52-11.142 44.95-24.769 87.686-81.337 164.13-159.104 214.266-63.232-35.203-134.235-53.64-207.597-53.64-73.555 0-144.73 18.537-208.084 53.922-78-50.131-134.75-126.68-159.564-214.549 0 0-4.893-18.172-11.795-46.4-2.136-8.723-10.035-14.9-19.112-14.9L88.133-173.116c-9.415 0-16.693 8.214-15.47 17.452C91.698-12.084 181.099 109.526 305.51 174.385c58.682-40.472 129.996-64.267 206.966-64.267 76.799 0 147.968 23.684 206.584 63.991 124.123-64.932 213.281-186.403 232.277-329.772C952.56-164.901 945.287-173.115 935.867-173.115L935.867-173.115z"  horiz-adv-x="1024" />

    
    <glyph glyph-name="box" unicode="&#58937;" d="M628.98612907 422.97207467q0 15.8466048-11.5802112 27.426816t-27.426816 11.5802112l-156.0281088 0q-15.8466048 0-27.426816-11.5802112t-11.5802112-27.426816 11.5802112-27.426816 27.426816-11.5802112l156.0281088 0q15.8466048 0 27.426816 11.5802112t11.5802112 27.426816z m351.0632448 117.0210816l0-585.105408q0-15.8466048-11.5802112-27.426816t-27.426816-11.5802112l-858.1545984 0q-15.8466048 0-27.426816 11.5802112t-11.5802112 27.426816l0 585.105408q0 15.8466048 11.5802112 27.426816t27.426816 11.5802112l858.1545984 0q15.8466048 0 27.426816-11.5802112t11.5802112-27.426816z m39.0070272 273.0491904l0-156.0281088q0-15.8466048-11.5802112-27.426816t-27.426816-11.5802112l-936.1686528 0q-15.8466048 0-27.426816 11.5802112t-11.5802112 27.426816l0 156.0281088q0 15.8466048 11.5802112 27.426816t27.426816 11.5802112l936.1686528 0q15.8466048 0 27.426816-11.5802112t11.5802112-27.426816z"  horiz-adv-x="1024" />

    
    <glyph glyph-name="arrow-left" unicode="&#59094;" d="M654.6 698.2l-4.2-3.6-313-272c-10.6-9.2-17.2-23-17.2-38.4 0-15.4 6.8-29.2 17.2-38.4L649.8 74l5.2-4.6c5-3.4 11-5.4 17.4-5.4 17.4 0 31.6 14.8 31.6 33.2l0 0L704 670.8l0 0c0 18.4-14.2 33.2-31.6 33.2C665.8 704 659.6 701.8 654.6 698.2z"  horiz-adv-x="1024" />

    
    <glyph glyph-name="home" unicode="&#58903;" d="M805.695-77.009c-1.963 0-3.541 0.054-4.672 0.111L203.268-76.898c-40.042 0-63.091 16.865-75.375 31.013-26.919 31.003-24.757 73.037-23.543 84.7l0 359.53 64 0 0-363.913-0.302-1.883c-0.761-6.401-0.833-26.277 8.289-36.609 1.93-2.186 7.803-8.838 26.932-8.838l600.308 0 0.75-0.082c2.153-0.076 22.315-0.434 34.996 11.557 8.454 7.994 12.74 21.212 12.74 39.288L852.063 398.621l64 0 0-360.756c0-45.871-18.247-72.371-33.555-86.525C854.974-74.12 820.092-77.008 805.695-77.009zM136.349 368.312 38 368.312c-13.291 0-25.197 8.214-29.916 20.639-4.718 12.425-1.266 26.472 8.674 35.294l472.219 419.09c12.02 10.668 30.087 10.766 42.223 0.227l478.781-415.791c9.955-8.646 13.588-22.513 9.151-34.929s-16.035-20.84-29.216-21.219l-104.938-3.012c-0.313-0.01-0.624-0.014-0.936-0.014-17.247 0-31.471 13.729-31.97 31.082-0.507 17.666 13.403 32.398 31.069 32.905l22.931 0.658L510.448 776.821 122.266 432.312l14.083 0c17.673 0 32-14.327 32-32S154.022 368.312 136.349 368.312zM403-45.201c-14.912 0-27 12.088-27 27L376 207.645c0.002 4.866 1.234 24.9 20.021 43.995 22.8 23.173 61.458 34.923 114.901 34.923 52.638 0 90.876-11.911 113.652-35.403 19.225-19.828 20.464-40.706 20.426-46.244l0-222.25c0-14.912-12.088-27-27-27s-27 12.088-27 27L591 204.598c-0.179 1.167-1.308 6.104-8.017 11.541-7.569 6.134-26.997 16.424-72.062 16.424-52.272 0-70.848-13.145-76.408-18.795-2.73-2.775-3.876-5.136-4.357-6.627-0.073-0.225-0.123-0.411-0.157-0.549l0-224.793C430-33.113 417.912-45.201 403-45.201z"  horiz-adv-x="1024" />

    
    <glyph glyph-name="arrow-right" unicode="&#59054;" d="M360 64c-10.752 0-20.096 3.968-28.096 11.904C323.904 83.904 320 93.24800000000005 320 104l0 560C320 674.816 323.904 684.16 331.904 692.096 339.904 700.096 349.248 704 360 704s20.096-3.904 28.096-11.904l280-280C675.968 404.16 680 394.816 680 384c0-10.752-3.968-20.096-11.904-28.096l-280-280C380.096 67.96799999999996 370.752 64 360 64z"  horiz-adv-x="1024" />

    
    <glyph glyph-name="clock" unicode="&#59091;" d="M512 893.72444445C230.55928889 893.72444445 2.27555555 665.51352889 2.27555555 384c0-281.44071111 228.28373333-509.72444445 509.72444445-509.72444445 281.51352889 0 509.72444445 228.28373333 509.72444445 509.72444445C1021.72444445 665.51352889 793.51352889 893.72444445 512 893.72444445zM725.50172445 334.48391111l-214.52117334 0c-0.29127111 0-0.58254222 0.14563555-0.87381333 0.14563556-0.36408889 0-0.58254222-0.14563555-0.87381333-0.14563556C497.65489778 334.41109332999997 487.31477333 339.21706667 479.15918222 346.49884445c-0.87381333 0.72817778-1.96608 1.16508445-2.76707555 1.89326222-0.94663111 0.94663111-1.45635555 2.25735111-2.25735112 3.20398222-7.06332445 8.15559111-11.72366222 18.20444445-11.72366222 29.56401778 0 0.29127111 0.14563555 0.50972445 0.14563556 0.80099555 0 0.29127111-0.14563555 0.58254222-0.14563556 0.87381333L462.41109333 670.31950222c0 26.79694222 20.97152 48.56945778 46.89464889 48.49664C535.08323555 718.88896 555.98193778 697.11644445 555.98193778 670.39232l0.07281777-242.33756445 169.37415112 0c26.79694222 0 48.56945778-20.97152 48.49664-46.89464888C773.99836445 355.38261333 752.22584889 334.48391111 725.50172445 334.48391111z"  horiz-adv-x="1024" />

    
    <glyph glyph-name="close-circle" unicode="&#58885;" d="M512 896C229.24001 896 0 666.75999 0 384c0-282.828724 229.24001-512 512-512 282.828724 0 512 229.171276 512 512C1023.997852 666.75999 794.826576 896 512 896zM749.226015 572.962021l-190.259371-190.328105 168.412772-187.595937c13.312872-13.312872 13.312872-35.019856 0-48.263994-13.244138-13.312872-34.95327-13.312872-48.19526 0l-168.412772 187.595937-187.664671-187.595937c-13.312872-13.312872-34.95327-13.312872-48.263994 0-13.312872 13.244138-13.312872 34.95327 0 48.263994l190.259371 190.259371-168.346186 187.664671c-13.312872 13.312872-13.312872 34.95327 0 48.263994s34.95327 13.312872 48.263994 0l168.412772-187.664671 187.595937 187.664671c13.312872 13.312872 34.95327 13.312872 48.263994 0C762.605473 607.915291 762.536739 586.274893 749.226015 572.962021z"  horiz-adv-x="1024" />

    
    <glyph glyph-name="refresh" unicode="&#58936;" d="M512.002558 896C227.562489 896 0 668.446718 0 384.001535c0-284.441091 227.561466-512.001535 512.002558-512.001535 284.446206 0 511.998465 227.561466 511.998465 512.001535 0 28.441347-18.957829 47.40736-47.409406 47.40736-28.443393 0-47.403268-18.966013-47.403268-47.40736 0-227.554305-189.634555-417.188861-417.185791-417.188861-227.555328 0-417.187837 189.634555-417.187837 417.188861 0 227.551236 189.632509 417.185791 417.187837 417.185791 75.850753 0 161.181955-18.967036 218.076925-66.370304l0-9.483518 0 0-47.409406-56.886786c-18.961921-18.966013 0-56.893947 28.441347-56.893947l218.077948-9.476357c18.959875 0 37.925888 28.443393 37.925888 47.404291L900.743933 858.073089c-9.483518 28.444416-47.409406 37.926911-66.367235 9.484541l-37.927934-56.886786C711.111424 867.55763 616.29875 896 512.002558 896L512.002558 896z"  horiz-adv-x="1024" />

    
    <glyph glyph-name="desktop" unicode="&#58987;" d="M1024 329.142857v475.428572c0 9.728-8.557714 18.285714-18.285714 18.285714h-914.285715c-9.728 0-18.285714-8.557714-18.285714-18.285714v-475.428572c0-9.728 8.557714-18.285714 18.285714-18.285714h914.285715c9.728 0 18.285714 8.557714 18.285714 18.285714z m73.142857 475.428572v-621.714286c0-50.285714-41.142857-91.428571-91.428571-91.428572H694.857143c0-48.566857 36.571429-89.709714 36.571428-109.714285s-16.566857-36.571429-36.571428-36.571429h-292.571429c-20.004571 0-36.571429 16.566857-36.571428 36.571429 0 21.138286 36.571429 60.013714 36.571428 109.714285H91.428571A91.684571 91.684571 0 0 0 0 182.857143v621.714286C0 854.857143 41.142857 896 91.428571 896h914.285715C1056 896 1097.142857 854.857143 1097.142857 804.571429z"  horiz-adv-x="1097" />

    
    <glyph glyph-name="location" unicode="&#59247;" d="M512 832c-172.3 0-312-139.7-312-312 0-139.8 205.3-437 282.8-544.3 7.2-9.9 18.2-14.9 29.2-14.9s22 5 29.2 14.9C618.7 83 824 380.2 824 520c0 172.3-139.7 312-312 312z m0-424c-64.1 0-116 51.9-116 116s51.9 116 116 116 116-51.9 116-116-51.9-116-116-116z"  horiz-adv-x="1024" />

    
    <glyph glyph-name="location-o" unicode="&#59248;" d="M512 568c24.3 0 44-19.7 44-44s-19.7-44-44-44-44 19.7-44 44 19.7 44 44 44m0 72c-64.1 0-116-51.9-116-116s51.9-116 116-116 116 51.9 116 116-51.9 116-116 116zM512 760c64.1 0 124.4-25 169.7-70.3C727 644.4 752 584.1 752 520c0-12.9-3.6-43.2-27.8-101.3-17.4-41.9-42.6-91.4-74.8-146.9-46.5-80.1-99.1-158.3-137.4-212.9-38.3 54.6-90.9 132.8-137.4 212.9-32.2 55.6-57.4 105-74.8 146.9C275.6 476.8 272 507.1 272 520c0 64.1 25 124.4 70.3 169.7S447.9 760 512 760m0 72c-172.3 0-312-139.7-312-312 0-139.8 205.3-437 282.8-544.3 7.2-9.9 18.2-14.9 29.2-14.9s22 5 29.2 14.9C618.7 83 824 380.2 824 520c0 172.3-139.7 312-312 312z"  horiz-adv-x="1024" />

    
    <glyph glyph-name="like-o" unicode="&#59293;" d="M512.1-73c-31.5 0-61.2 12.3-83.6 34.7L92.9 298.5C33 358.5 0 438.4 0 523.4c0 84.8 33 164.7 92.8 224.9C152.4 808.1 231.6 841 315.9 841c71.4 0 140.2-24 196.2-68 55.8 44 124.6 68 196.1 68 84.3 0 163.5-32.9 223.1-92.7 59.9-60.2 92.8-140.1 92.8-224.9 0-84.9-33-164.8-92.8-224.9-11.5-11.6-302-303.2-335.5-336.8-22.5-22.4-52.2-34.7-83.7-34.7zM315.9 769c-65 0-126.1-25.4-172.1-71.5C97.5 650.9 72 589.1 72 523.4c0-65.8 25.5-127.6 71.9-174.1l335.5-336.8c8.8-8.8 20.1-13.5 32.6-13.5s23.8 4.7 32.6 13.6c113.6 114 329.8 331 335.2 336.5l0.3 0.3c46.3 46.5 71.8 108.3 71.8 174.1 0 65.7-25.5 127.5-71.9 174.1-45.9 46.1-107 71.5-172 71.5-61.2 0-119.9-22.8-165.2-64.2l-6.7-6.1-24-21.8-30.8 27.8C435.8 746.2 377.1 769 315.9 769z"  horiz-adv-x="1024" />

    
    <glyph glyph-name="like" unicode="&#59294;" d="M931.2 748.3C871.6 808.1 792.4 841 708.1 841c-71.5 0-140.2-24-196.1-68-55.9 44-124.7 68-196.2 68-84.3 0-163.5-32.9-223.1-92.7C33 688.1 0 608.2 0 523.4c0-85 33-164.9 92.9-224.9l335.6-336.9c22.4-22.4 52-34.7 83.6-34.7 31.5 0 61.2 12.3 83.6 34.7 33.5 33.6 324 325.2 335.5 336.8 59.9 60.1 92.8 140 92.8 224.9s-33 164.8-92.8 225z"  horiz-adv-x="1024" />

    
    <glyph glyph-name="feed" unicode="&#58900;" d="M598.933902 571.448889L893.333902 865.848889a42.666667 42.666667 0 1 0 60.302222-60.359111l-294.343111-294.343111a42.666667 42.666667 0 0 0-60.302222 60.302222zM625.67168 853.333333a42.666667 42.666667 0 0 0-42.666667-42.666666H227.449458c-48.128 0-85.333333-35.271111-85.333334-76.344889v-700.643556c0-41.073778 37.205333-76.344889 85.333334-76.344889h568.888889c48.128 0 85.333333 35.271111 85.333333 76.344889V512a42.666667 42.666667 0 1 0 85.333333 0v-478.321778C967.005013-55.63733300000001 890.603236-128 796.338347-128H227.449458c-94.264889 0-170.666667 72.362667-170.666667 161.678222V734.321778C56.782791 823.637333 133.184569 896 227.449458 896h355.555555a42.666667 42.666667 0 0 0 42.666667-42.666667zM270.116124 384h199.111112a42.666667 42.666667 0 0 0 0-85.333333h-199.111112a42.666667 42.666667 0 1 0 0 85.333333z m0-170.666667h369.777778a42.666667 42.666667 0 1 0 0-85.333333h-369.777778a42.666667 42.666667 0 1 0 0 85.333333z"  horiz-adv-x="1024" />

    
    <glyph glyph-name="close" unicode="&#58901;" d="M511.93630611 455.36615505L919.79116515 863.29139356a45.88807061 45.88807061 0 0 0 64.89079823 0l6.47500367-6.47500366a45.88807061 45.88807061 0 0 0 0-64.8907992L583.30210892 384.00035223l407.85485812-407.85485905a45.88807061 45.88807061 0 0 0 1e-8-64.8907992l-6.47500368-6.47500367a45.88807061 45.88807061 0 0 0-64.8907982 0L511.93630611 312.63454937999995 104.08144703-95.29069006999998a45.88807061 45.88807061 0 0 0-64.89079918 0l-6.47500363 6.47500365a45.88807061 45.88807061 0 0 0 0 64.8907992L440.57050324 384.00035223 32.6452638 791.85521031a45.88807061 45.88807061 0 0 0 0 64.89079917L39.19064783 863.22101314a45.88807061 45.88807061 0 0 0 64.8907992 0L511.93630611 455.36615505z"  horiz-adv-x="1024" />

    
    <glyph glyph-name="collec" unicode="&#58902;" d="M476.880871 63.60573599999998a72.673114 72.673114 0 0 0 70.472449 0l208.551366-115.560487a24.207312 24.207312 0 0 1 35.620061 25.077342l-40.942599 251.950521c-3.736012 22.671964 3.582477 45.804533 19.601269 62.283929l174.210761 178.970338a24.207312 24.207312 0 0 1-13.715771 40.840243l-236.443512 36.2342a72.673114 72.673114 0 0 0-54.863083 40.9426L534.149332 809.375184a24.207312 24.207312 0 0 1-43.910938 0L384.862379 584.3956000000001c-10.23565-21.955469-30.809306-37.360122-54.760727-40.993778l-236.49469-36.2342a24.207312 24.207312 0 0 1-13.715771-40.840243l174.210761-178.970338c16.018792-16.479396 23.337282-39.611965 19.652447-62.283929l-40.993777-251.950521a24.207312 24.207312 0 0 1 35.620061-25.077342l208.500188 115.560487z m-173.238374-179.123873a96.931604 96.931604 0 0 0-142.633781 100.309369l40.993778 251.950521L27.791734 415.71209a96.829248 96.829248 0 0 0 54.760726 163.258615l236.49469 36.234201 105.324837 224.877227a96.880426 96.880426 0 0 0 175.541395 0l105.273659-224.877227 236.494689-36.234201a96.880426 96.880426 0 0 0 54.760727-163.258615L822.282875 236.74175300000002l40.942599-251.950521a96.880426 96.880426 0 0 0-142.582602-100.309369L512.142684 0.09352799999999206l-208.500187-115.509308z"  horiz-adv-x="1024" />

    
    <glyph glyph-name="share" unicode="&#58904;" d="M1024 341.33333300000004V-71.11111100000005a56.888889 56.888889 0 0 0-56.888889-56.888889H56.888889a56.888889 56.888889 0 0 0-56.888889 56.888889V839.111111a56.888889 56.888889 0 0 0 56.888889 56.888889h412.444444a42.666667 42.666667 0 1 0 0-85.333333H85.333333v-853.333334h853.333334V341.33333300000004a42.666667 42.666667 0 1 0 85.333333 0z m-165.205333 316.302223L723.057778 793.486222a42.666667 42.666667 0 1 0 60.302222 60.302222l208.668444-208.668444a42.666667 42.666667 0 0 0-30.151111-72.817778H697.457778a241.777778 241.777778 0 0 1-241.777778-241.777778v-62.008888a42.666667 42.666667 0 0 0-85.333333 0V330.524444a327.111111 327.111111 0 0 0 327.111111 327.111112h161.393778z"  horiz-adv-x="1024" />

    
    <glyph glyph-name="search" unicode="&#58905;" d="M849.055289 95.630222l6.314667-6.314666c14.165333 0.796444 28.501333-4.209778 39.253333-15.018667l114.460444-114.403556a51.484444 51.484444 0 1 0-72.817777-72.817777l-114.403556 114.403555a51.370667 51.370667 0 0 0-15.018667 39.253333l-6.314666 6.371556a483.555556 483.555556 0 1 0 48.526222 48.526222zM483.714844 14.222221999999988a398.222222 398.222222 0 1 1 0 796.444445 398.222222 398.222222 0 0 1 0-796.444445z"  horiz-adv-x="1024" />

    
    <glyph glyph-name="empty" unicode="&#58899;" d="M914.1248 606.9248l-230.4 230.4A25.6 25.6 0 0 1 665.6 844.8H179.2C136.8576 844.8 102.4 810.3424 102.4 768v-819.2c0-42.3424 34.4576-76.8 76.8-76.8h665.6c42.3424 0 76.8 34.4576 76.8 76.8V588.8a25.8048 25.8048 0 0 1-7.4752 18.1248zM859.8016 588.8H691.2a25.6 25.6 0 0 0-25.6 25.6V783.0016L859.8016 588.8zM870.4-51.200000000000045a25.6 25.6 0 0 0-25.6-25.6h-665.6a25.6 25.6 0 0 0-25.6 25.6v819.2a25.6 25.6 0 0 0 25.6 25.6H614.4v-179.2c0-42.3424 34.4576-76.8 76.8-76.8H870.4v-588.8z"  horiz-adv-x="1024" />

    
    <glyph glyph-name="tag" unicode="&#59192;" d="M384-81.152c-20.5312 0-39.8336 7.9872-54.3232 22.4256l-260.4032 260.4032c-14.4896 14.4896-22.4256 33.7408-22.4256 54.3232s7.9872 39.8336 22.4256 54.3232l439.6032 439.6032c24.9344 24.9344 70.2464 43.7248 105.5232 43.7248h230.4c42.3424 0 76.8-34.4576 76.8-76.8v-230.4c0-35.2256-18.7904-80.5888-43.6736-105.5232l-439.6032-439.6032a76.1856 76.1856 0 0 0-54.3232-22.4256zM614.4 742.4c-21.248 0-54.272-13.6704-69.2736-28.7232l-439.6032-439.6032c-4.8128-4.8128-7.424-11.2128-7.424-18.1248s2.6624-13.312 7.424-18.0736l260.4032-260.4032c4.8128-4.8128 11.2128-7.424 18.1248-7.424s13.312 2.6624 18.1248 7.424l439.6032 439.6032c15.0016 15.0016 28.7232 48.0768 28.7232 69.3248V716.8a25.6 25.6 0 0 1-25.6 25.6h-230.4zM742.4 537.6c-42.3424 0-76.8 34.4576-76.8 76.8S700.0576 691.2 742.4 691.2s76.8-34.4576 76.8-76.8S784.7424 537.6 742.4 537.6z m0 102.4a25.6 25.6 0 1 1 0-51.2 25.6 25.6 0 0 1 0 51.2z"  horiz-adv-x="1024" />

    
    <glyph glyph-name="earth" unicode="&#59230;" d="M874.0352 746.0352C777.3184 842.752 648.7552 896 512 896S246.6816 842.752 149.9648 746.0352C53.248 649.3184 0 520.7552 0 384s53.248-265.3184 149.9648-362.0352C246.6816-74.752 375.2448-128 512-128s265.3184 53.248 362.0352 149.9648C970.752 118.6816 1024 247.2448 1024 384s-53.248 265.3184-149.9648 362.0352z m67.8912-196.1984c-9.984 17.9712-35.072 26.5216-67.84 37.6832-35.1744 11.9808-47.616 48.128-62.0032 90.0096-12.4928 36.352-25.3952 73.8816-56.064 97.2288a463.4624 463.4624 0 0 0 185.9072-224.9216z m-143.6672-175.616c3.8912-34.6624 7.8848-70.5536-35.1744-118.8864-11.6224-13.056-18.432-31.232-25.6512-50.4832-16.6912-44.5952-32.4608-86.7328-99.6352-87.3472-1.8944 2.2528-7.2192 10.752-11.9808 37.5296-4.352 24.6784-6.8608 56.6272-9.5744 90.368-4.096 51.8144-8.7552 110.592-21.5552 159.3344-16.384 62.3104-43.8784 99.1232-84.0192 112.5376a170.3936 170.3936 0 0 1-54.6816 8.704c-14.2336 0-27.136-1.536-38.5024-2.8672-8.8576-1.024-17.2544-2.048-24.32-2.048-11.9808 0-25.5488 0-42.2912 38.2976C326.8608 614.4 344.576 702.6176 415.0784 749.1584c38.656 25.4976 65.3312 36.4032 89.1904 36.4032 19.0464 0 39.5776-6.6048 68.7104-22.1696a163.328 163.328 0 0 1 81.0496-20.6848c7.7824 0 14.848 0.4096 21.6576 0.8192 5.7344 0.3584 11.1104 0.6656 16.128 0.6656 11.264 0 20.3776-1.4848 31.0784-8.7552 19.712-13.4656 29.952-43.2128 40.7552-74.6496 16.384-47.7184 34.9696-101.7856 93.952-121.856 7.936-2.7136 21.5552-7.3216 31.232-11.3664-8.3456-8.6016-22.272-21.0432-35.9424-33.2288-8.8064-7.8848-18.7904-16.7936-29.8496-26.88-31.9488-29.1328-28.16-63.232-24.7808-93.2864z m-747.008 13.7216c5.5296-0.9728 11.4688-2.1504 17.6128-3.4304 28.7744-6.144 42.24-11.6736 48.128-14.7968-2.7136-5.2736-8.192-13.056-11.8272-18.176-12.6464-17.9712-28.416-40.3456-22.4256-64.9728 4.0448-16.64 0.6144-37.0176-5.2736-55.8592A458.752 458.752 0 0 0 51.2 384.1024l0.0512 3.9424zM512-76.8a461.2608 461.2608 0 0 0-406.016 243.0464c13.4144 25.5488 38.2976 82.0736 26.6752 131.5328 0.8192 4.9664 9.2672 16.9472 14.336 24.1664 13.8752 19.712 31.1296 44.1856 18.3296 70.144-8.96 18.2272-32.9728 30.5152-80.1792 41.1648a666.112 666.112 0 0 1-30.6688 6.0416C81.92 667.392 276.5824 844.7488 511.9488 844.7488c80.7936 0 156.7744-20.9408 222.8224-57.6a104.0896 104.0896 0 0 1-43.008 8.2432c-6.5024 0-12.9536-0.3584-19.2-0.768a318.5664 318.5664 0 0 0-18.6368-0.7168c-14.5408 0-32.6656 1.7408-56.9344 14.6944-37.0688 19.712-64.8192 28.16-92.7744 28.16-34.6112 0-69.7344-13.4144-117.4016-44.8512a218.4192 218.4192 0 0 1-87.3984-117.1456c-14.7968-47.1552-13.2096-95.4368 4.4544-135.8848 20.8384-47.7184 48.3328-69.0176 89.1904-69.0176 10.0864 0 19.9168 1.1776 30.3104 2.4064 10.496 1.2288 21.2992 2.5088 32.512 2.5088 13.8752 0 26.112-1.9456 38.4512-6.0416 22.4768-7.5264 39.0656-32.7168 50.7392-77.0048s16.0768-100.6592 20.0192-150.3232c3.2768-41.472 6.3488-80.5888 13.1584-110.1312 4.1472-17.92 9.472-31.5392 16.384-41.6256 10.2912-15.0528 25.0368-23.3472 41.5232-23.3472 45.2608 0 81.408 14.592 107.4688 43.3664 21.6576 23.9104 32.7168 53.4528 41.6256 77.2096 5.2224 13.9776 10.6496 28.4672 15.9232 34.4064 58.2144 65.3824 52.224 119.2448 47.8208 158.6176-3.2256 28.8768-3.2768 39.1168 8.3968 49.7664 10.8544 9.8816 20.736 18.7392 29.44 26.5216 18.5856 16.5888 32 28.5696 41.4208 38.8096 6.4512 7.0656 21.6064 23.6032 17.408 44.288l-0.1024 0.5632c17.5616-48.6912 27.136-101.1712 27.136-155.8528 0-254.1056-206.6944-460.8-460.8-460.8z"  horiz-adv-x="1024" />

    
    <glyph glyph-name="check-circle" unicode="&#59151;" d="M512-128C229.230592-128 0 101.230592 0 384S229.230592 896 512 896s512-229.230592 512-512-229.230592-512-512-512zM254.12608 367.22688000000005l172.396544-174.733312a0.607232 0.607232 0 0 1 0.864256-0.01536l342.540288 343.36768a0.311296 0.311296 0 0 1-0.003072 0.44032l-37.359616 37.285888a0.320512 0.320512 0 0 1-0.443392 0.02048l-304.47616-277.743616c-0.37376-0.340992-0.996352-0.357376-1.381376-0.027648L294.8608 408.51456a0.339968 0.339968 0 0 1-0.452608-0.022528l-40.27904-40.824832a0.3072 0.3072 0 0 1-0.004096-0.44032z"  horiz-adv-x="1024" />

    
    <glyph glyph-name="shop-cart" unicode="&#59004;" d="M874.752 661.333333A106.56 106.56 0 0 0 981.333333 554.602667v-163.797334c0-55.616-42.197333-107.562667-96.725333-118.976l-471.722667-98.794666a106.389333 106.389333 0 0 0-126.186666 82.794666L178.730667 768H85.333333a42.666667 42.666667 0 1 0 0 85.333333h128a42.666667 42.666667 0 0 0 41.749334-33.856L288.426667 661.333333h586.325333zM370.261333 273.06666700000005a21.056 21.056 0 0 1 25.130667-16.512l471.722667 98.794666C882.133333 358.48533299999997 896 375.59466699999996 896 390.826667v163.797333A21.226667 21.226667 0 0 1 874.752 576H308.266667l61.973333-302.933333zM352-85.33333300000004a96 96 0 1 0 0 192 96 96 0 0 0 0-192z m426.666667 0a96 96 0 1 0 0 192 96 96 0 0 0 0-192z"  horiz-adv-x="1024" />

    
    <glyph glyph-name="arrow-line-left" unicode="&#58893;" d="M297.813333 404.352l1.365334 1.749333 379.093333 376.149334a38.784 38.784 0 0 0 5.077333 4.096 34.346667 34.346667 0 0 0 14.293334 4.992c2.218667 0.170667 2.176 0.170667 4.394666 0.170666a33.493333 33.493333 0 0 0 14.549334-4.181333c12.330667-6.997333 18.688-21.76 15.274666-35.498667-1.237333-5.077333-7.04-13.44-7.04-13.44l-355.498666-352.853333 354.090666-354.389333s6.272-7.978667 7.893334-12.928a32.213333 32.213333 0 0 0-33.749334-41.557334c-6.656 0.682667-17.749333 7.68-17.749333 7.68l-379.221333 377.984-1.28 1.450667a30.378667 30.378667 0 0 0-7.893334 17.749333 31.018667 31.018667 0 0 0 3.712 18.602667 27.221333 27.221333 0 0 0 2.688 4.224z"  horiz-adv-x="1024" />

    
    <glyph glyph-name="arrow-line-right-copy" unicode="&#59231;" d="M726.186667 363.64799999l-1.365334-1.74933299-379.093333-376.149334a38.784 38.784 0 0 0-5.077333-4.096 34.346667 34.346667 0 0 0-14.293334-4.992c-2.218667-0.170667-2.176-0.170667-4.394666-0.170666a33.493333 33.493333 0 0 0-14.549334 4.181333c-12.330667 6.997333-18.688 21.76-15.274666 35.498667 1.237333 5.077333 7.04 13.44 7.04 13.44l355.498666 352.853333-354.090666 354.389333s-6.272 7.978667-7.893334 12.928a32.213333 32.213333 0 0 0 33.749334 41.557334c6.656-0.682667 17.74933301-7.68 17.749333-7.68l379.221333-377.984 1.28-1.450667a30.378667 30.378667 0 0 0 7.893334-17.749333 31.018667 31.018667 0 0 0-3.712-18.602667 27.221333 27.221333 0 0 0-2.688-4.22400001z"  horiz-adv-x="1024" />

    


  </font>
</defs>
</svg>
